<svg width="59" height="59" viewBox="0 0 59 59" fill="none" xmlns="http://www.w3.org/2000/svg">
<g filter="url(#filter0_d_233386_792)">
<rect x="5" y="1" width="49" height="49" rx="15" fill="#0065FC"/>
<path d="M37.7688 31.6976L34.4582 28.3876C34.3088 28.2382 34.1062 28.1552 33.8937 28.1552H33.3525C34.2689 26.9832 34.8135 25.5091 34.8135 23.9056C34.8135 20.0909 31.7221 17 27.9068 17C24.0914 17 21 20.0909 21 23.9056C21 27.7202 24.0914 30.8112 27.9068 30.8112C29.5106 30.8112 30.9849 30.2667 32.1571 29.3504V29.8915C32.1571 30.104 32.2401 30.3065 32.3895 30.4559L35.7001 33.7659C36.0122 34.078 36.517 34.078 36.8258 33.7659L37.7655 32.8264C38.0776 32.5143 38.0776 32.0097 37.7688 31.6976ZM27.9068 28.1552C25.5591 28.1552 23.6564 26.2561 23.6564 23.9056C23.6564 21.5583 25.5558 19.656 27.9068 19.656C30.2544 19.656 32.1571 21.555 32.1571 23.9056C32.1571 26.2528 30.2577 28.1552 27.9068 28.1552Z" fill="white"/>
<rect x="4.5" y="0.5" width="50" height="50" rx="15.5" stroke="#0065FC"/>
</g>
<defs>
<filter id="filter0_d_233386_792" x="0" y="0" width="59" height="59" filterUnits="userSpaceOnUse" color-interpolation-filters="sRGB">
<feFlood flood-opacity="0" result="BackgroundImageFix"/>
<feColorMatrix in="SourceAlpha" type="matrix" values="0 0 0 0 0 0 0 0 0 0 0 0 0 0 0 0 0 0 127 0" result="hardAlpha"/>
<feOffset dy="4"/>
<feGaussianBlur stdDeviation="2"/>
<feComposite in2="hardAlpha" operator="out"/>
<feColorMatrix type="matrix" values="0 0 0 0 0 0 0 0 0 0 0 0 0 0 0 0 0 0 0.25 0"/>
<feBlend mode="normal" in2="BackgroundImageFix" result="effect1_dropShadow_233386_792"/>
<feBlend mode="normal" in="SourceGraphic" in2="effect1_dropShadow_233386_792" result="shape"/>
</filter>
</defs>
</svg>
